<svg xmlns:dc="http://purl.org/dc/elements/1.1/" xmlns:cc="http://creativecommons.org/ns#" xmlns:rdf="http://www.w3.org/1999/02/22-rdf-syntax-ns#" xmlns:svg="http://www.w3.org/2000/svg" xmlns="http://www.w3.org/2000/svg" xmlns:sodipodi="http://sodipodi.sourceforge.net/DTD/sodipodi-0.dtd" xmlns:inkscape="http://www.inkscape.org/namespaces/inkscape" version="1.1" x="0px" y="0px" viewBox="0 0 100 125"><g transform="translate(0,-952.36218)"><path style="text-indent:0;text-transform:none;direction:ltr;block-progression:tb;baseline-shift:baseline;color:#000000;enable-background:accumulate;" d="m 50.019311,958.36216 c -24.265807,0 -44.0193178,19.75353 -44.0193178,44.01934 0,24.2658 19.7565938,43.9807 44.0193178,43.9807 24.262724,0 43.980696,-19.718 43.980696,-43.9807 0,-24.26273 -19.71489,-44.01934 -43.980696,-44.01934 z m 0,5.45141 c 21.315543,0 38.529318,17.24929 38.529318,38.56793 0,21.3186 -17.210693,38.5293 -38.529318,38.5293 -21.318626,0 -38.56794,-17.2137 -38.56794,-38.5293 0,-21.31556 17.252397,-38.56793 38.56794,-38.56793 z" fill="#000000" fill-opacity="1" fill-rule="evenodd" stroke="none" marker="none" visibility="visible" display="inline" overflow="visible"/><path style="text-indent:0;text-transform:none;direction:ltr;block-progression:tb;baseline-shift:baseline;color:#000000;enable-background:accumulate;" d="m 70.745779,986.0707 a 2.7257119,2.7257119 0 0 0 -1.873488,0.82689 L 43.762716,1012.0434 31.128878,999.3757 a 2.7257119,2.7257119 0 1 0 -3.860433,3.8484 l 14.56285,14.6015 a 2.7257119,2.7257119 0 0 0 3.859264,0 L 72.73035,990.74714 a 2.7257119,2.7257119 0 0 0 -1.984571,-4.67764 z" fill="#000000" fill-opacity="1" fill-rule="evenodd" stroke="none" marker="none" visibility="visible" display="inline" overflow="visible"/></g><text x="0" y="115" fill="#000000" font-size="5px" font-weight="bold" font-family="'Helvetica Neue', Helvetica, Arial-Unicode, Arial, Sans-serif">Created by Royyan Razka</text><text x="0" y="120" fill="#000000" font-size="5px" font-weight="bold" font-family="'Helvetica Neue', Helvetica, Arial-Unicode, Arial, Sans-serif">from the Noun Project</text></svg>